# xmcd
#
# Track frame offsets: 
#        182
#        13352
#        25825
#        37207
#        49077
#        61002
#        72487
#        83975
#        97090
#        111952
#        123840
#        135320
#        147262
#        159220
#        172370
#        183775
#        195927
#        208102
#        219027
#        230042
#        241460
#
# Disc length: 3388 seconds
#
# Revision: 2
# Processed by: cddbd v1.5.2PL0 Copyright (c) Steve Scherf et al.
# Submitted via: ExactAudioCopyFreeDBPlugin 1.0
#
DISCID=2c0d3a15
DTITLE=Sam and Dave - The Best of Sam and Dave
DYEAR=1987
DGENRE=Soul
TTITLE0=A Place Nobody Can Find
TTITLE1=Good Night Baby
TTITLE2=I Take What I Want
TTITLE3=Sweet Home
TTITLE4=You Don't Know Like I Know
TTITLE5=Hold On, I'm Comin'
TTITLE6=Said I Wasn't Gonna Tell Nobody
TTITLE7=You Got Me Hummin'
TTITLE8=When Something is Wrong with My Baby
TTITLE9=Small Portion of Your Love
TTITLE10=Soothe Me
TTITLE11=Soul Man
TTITLE12=May I Baby
TTITLE13=I Thank You
TTITLE14=Wrap it Up
TTITLE15=Still is the Night
TTITLE16=You Don't Know What You Mean to Me
TTITLE17=This is Your World
TTITLE18=Can't You Find Another Way (Of Doing It)
TTITLE19=Soul Sister, Brown Sugar
TTITLE20=Come on In
EXTD=
EXTT0=
EXTT1=
EXTT2=
EXTT3=
EXTT4=
EXTT5=
EXTT6=
EXTT7=
EXTT8=
EXTT9=
EXTT10=
EXTT11=
EXTT12=
EXTT13=
EXTT14=
EXTT15=
EXTT16=
EXTT17=
EXTT18=
EXTT19=
EXTT20=
PLAYORDER=
